HIERARCHY
ROOT Hips
{
	OFFSET 0 0 0
	CHANNELS 6 Xposition Yposition Zposition Yrotation Xrotation Zrotation
	JOINT Spine
	{
		OFFSET -0 8.08628 -2.5775
		CHANNELS 3 Yrotation Xrotation Zrotation
		JOINT Spine1
		{
			OFFSET -0 8.17342 0
			CHANNELS 3 Yrotation Xrotation Zrotation
			JOINT Spine2
			{
				OFFSET -0 8.17342 0
				CHANNELS 3 Yrotation Xrotation Zrotation
				JOINT Spine3
				{
					OFFSET -0 8.17342 0
					CHANNELS 3 Yrotation Xrotation Zrotation
					JOINT Neck
					{
						OFFSET -0 13.9808 3.5775
						CHANNELS 3 Yrotation Xrotation Zrotation
						JOINT Head
						{
							OFFSET -0 10.1078 0
							CHANNELS 3 Yrotation Xrotation Zrotation
							End Site
							{
								OFFSET 0 15 0
							}
						}
					}
					JOINT LeftShoulder
					{
						OFFSET 1.68464 1.97436 3.36928
						CHANNELS 3 Yrotation Xrotation Zrotation
						JOINT LeftArm
						{
							OFFSET 16.4919 0 0
							CHANNELS 3 Yrotation Xrotation Zrotation
							JOINT LeftForeArm
							{
								OFFSET 23.9853 0 0
								CHANNELS 3 Yrotation Xrotation Zrotation
								JOINT LeftHand
								{
									OFFSET 23.7665 0 0
									CHANNELS 3 Yrotation Xrotation Zrotation
									JOINT LeftHandThumb1
									{
										OFFSET 4.73892 0 0.95067
										CHANNELS 3 Yrotation Xrotation Zrotation
										JOINT LeftHandThumb2
										{
											OFFSET 3 0 1
											CHANNELS 3 Yrotation Xrotation Zrotation
											JOINT LeftHandThumb3
											{
												OFFSET 2.1 0 0
												CHANNELS 3 Yrotation Xrotation Zrotation
												JOINT LeftHandThumb4
												{
													OFFSET 1.305 0 0
													CHANNELS 3 Yrotation Xrotation Zrotation
													End Site
													{
														OFFSET -0 0 0
													}
												}
											}
										}
									}
									JOINT LeftHandIndex1
									{
										OFFSET 9.00175 0 2.03831
										CHANNELS 3 Yrotation Xrotation Zrotation
										JOINT LeftHandIndex2
										{
											OFFSET 3.5 0 0
											CHANNELS 3 Yrotation Xrotation Zrotation
											JOINT LeftHandIndex3
											{
												OFFSET 2.45 0 0
												CHANNELS 3 Yrotation Xrotation Zrotation
												JOINT LeftHandIndex4
												{
													OFFSET 1.5225 0 0
													CHANNELS 3 Yrotation Xrotation Zrotation
													End Site
													{
														OFFSET -0 0 0
													}
												}
											}
										}
									}
									JOINT LeftHandMiddle1
									{
										OFFSET 8.95394 0 0.459792
										CHANNELS 3 Yrotation Xrotation Zrotation
										JOINT LeftHandMiddle2
										{
											OFFSET 4.6 0 0
											CHANNELS 3 Yrotation Xrotation Zrotation
											JOINT LeftHandMiddle3
											{
												OFFSET 3.22 0 0
												CHANNELS 3 Yrotation Xrotation Zrotation
												JOINT LeftHandMiddle4
												{
													OFFSET 2.001 0 0
													CHANNELS 3 Yrotation Xrotation Zrotation
													End Site
													{
														OFFSET -0 0 0
													}
												}
											}
										}
									}
									JOINT LeftHandRing1
									{
										OFFSET 8.60612 0 -1.11872
										CHANNELS 3 Yrotation Xrotation Zrotation
										JOINT LeftHandRing2
										{
											OFFSET 3.75 0 0
											CHANNELS 3 Yrotation Xrotation Zrotation
											JOINT LeftHandRing3
											{
												OFFSET 2.625 0 0
												CHANNELS 3 Yrotation Xrotation Zrotation
												JOINT LeftHandRing4
												{
													OFFSET 1.63125 0 0
													CHANNELS 3 Yrotation Xrotation Zrotation
													End Site
													{
														OFFSET -0 0 0
													}
												}
											}
										}
									}
									JOINT LeftHandPinky1
									{
										OFFSET 7.9583 0 -2.69724
										CHANNELS 3 Yrotation Xrotation Zrotation
										JOINT LeftHandPinky2
										{
											OFFSET 2.875 0 0
											CHANNELS 3 Yrotation Xrotation Zrotation
											JOINT LeftHandPinky3
											{
												OFFSET 2.0125 0 0
												CHANNELS 3 Yrotation Xrotation Zrotation
												JOINT LeftHandPinky4
												{
													OFFSET 1.25062 0 0
													CHANNELS 3 Yrotation Xrotation Zrotation
													End Site
													{
														OFFSET -0 0 0
													}
												}
											}
										}
									}
								}
							}
						}
					}
					JOINT RightShoulder
					{
						OFFSET -1.68464 1.97436 3.36928
						CHANNELS 3 Yrotation Xrotation Zrotation
						JOINT RightArm
						{
							OFFSET -16.4919 0 0
							CHANNELS 3 Yrotation Xrotation Zrotation
							JOINT RightForeArm
							{
								OFFSET -23.9853 0 0
								CHANNELS 3 Yrotation Xrotation Zrotation
								JOINT RightHand
								{
									OFFSET -23.7665 0 0
									CHANNELS 3 Yrotation Xrotation Zrotation
									JOINT RightHandThumb1
									{
										OFFSET -4.49364 0 2.24179
										CHANNELS 3 Yrotation Xrotation Zrotation
										JOINT RightHandThumb2
										{
											OFFSET -3 0 1
											CHANNELS 3 Yrotation Xrotation Zrotation
											JOINT RightHandThumb3
											{
												OFFSET -2.1 0 0
												CHANNELS 3 Yrotation Xrotation Zrotation
												JOINT RightHandThumb4
												{
													OFFSET -1.305 0 0
													CHANNELS 3 Yrotation Xrotation Zrotation
													End Site
													{
														OFFSET -0 0 0
													}
												}
											}
										}
									}
									JOINT RightHandIndex1
									{
										OFFSET -8.61172 0 3.12336
										CHANNELS 3 Yrotation Xrotation Zrotation
										JOINT RightHandIndex2
										{
											OFFSET -3.5 0 0
											CHANNELS 3 Yrotation Xrotation Zrotation
											JOINT RightHandIndex3
											{
												OFFSET -2.45 0 0
												CHANNELS 3 Yrotation Xrotation Zrotation
												JOINT RightHandIndex4
												{
													OFFSET -1.5225 0 0
													CHANNELS 3 Yrotation Xrotation Zrotation
													End Site
													{
														OFFSET -0 0 0
													}
												}
											}
										}
									}
									JOINT RightHandMiddle1
									{
										OFFSET -8.49707 0 1.18186
										CHANNELS 3 Yrotation Xrotation Zrotation
										JOINT RightHandMiddle2
										{
											OFFSET -4.6 0 0
											CHANNELS 3 Yrotation Xrotation Zrotation
											JOINT RightHandMiddle3
											{
												OFFSET -3.22 0 0
												CHANNELS 3 Yrotation Xrotation Zrotation
												JOINT RightHandMiddle4
												{
													OFFSET -2.001 0 0
													CHANNELS 3 Yrotation Xrotation Zrotation
													End Site
													{
														OFFSET -0 0 0
													}
												}
											}
										}
									}
									JOINT RightHandRing1
									{
										OFFSET -8.08241 0 -0.759647
										CHANNELS 3 Yrotation Xrotation Zrotation
										JOINT RightHandRing2
										{
											OFFSET -3.75 0 0
											CHANNELS 3 Yrotation Xrotation Zrotation
											JOINT RightHandRing3
											{
												OFFSET -2.625 0 0
												CHANNELS 3 Yrotation Xrotation Zrotation
												JOINT RightHandRing4
												{
													OFFSET -1.63125 0 0
													CHANNELS 3 Yrotation Xrotation Zrotation
													End Site
													{
														OFFSET -0 0 0
													}
												}
											}
										}
									}
									JOINT RightHandPinky1
									{
										OFFSET -7.36776 0 -2.70115
										CHANNELS 3 Yrotation Xrotation Zrotation
										JOINT RightHandPinky2
										{
											OFFSET -2.875 0 0
											CHANNELS 3 Yrotation Xrotation Zrotation
											JOINT RightHandPinky3
											{
												OFFSET -2.0125 0 0
												CHANNELS 3 Yrotation Xrotation Zrotation
												JOINT RightHandPinky4
												{
													OFFSET -1.25062 0 0
													CHANNELS 3 Yrotation Xrotation Zrotation
													End Site
													{
														OFFSET -0 0 0
													}
												}
											}
										}
									}
								}
							}
						}
					}
				}
			}
		}
	}
	JOINT LeftUpLeg
	{
		OFFSET 10.1078 -3.36928 3
		CHANNELS 3 Yrotation Xrotation Zrotation
		JOINT LeftLeg
		{
			OFFSET -0 -43.6821 2.3585
			CHANNELS 3 Yrotation Xrotation Zrotation
			JOINT LeftFoot
			{
				OFFSET -0 -36.6228 -2.3585
				CHANNELS 3 Yrotation Xrotation Zrotation
				JOINT LeftToeBase
				{
					OFFSET -0 -9.28843 9.36804
					CHANNELS 3 Yrotation Xrotation Zrotation
					End Site
					{
						OFFSET 0 0 5
					}
				}
			}
		}
	}
	JOINT RightUpLeg
	{
		OFFSET -10.1078 -3.36928 3
		CHANNELS 3 Yrotation Xrotation Zrotation
		JOINT RightLeg
		{
			OFFSET -0 -43.6821 2.3585
			CHANNELS 3 Yrotation Xrotation Zrotation
			JOINT RightFoot
			{
				OFFSET -0 -36.6228 -2.3585
				CHANNELS 3 Yrotation Xrotation Zrotation
				JOINT RightToeBase
				{
					OFFSET -0 -9.28843 9.36804
					CHANNELS 3 Yrotation Xrotation Zrotation
					End Site
					{
						OFFSET 0 0 5
					}
				}
			}
		}
	}
}
MOTION
Frames: 5
Frame Time: 0.00833333
51.700787 66.656836 -63.562128 117.952900 7.136509 -6.943238 0.523997 6.948924 6.549265 1.302630 3.389131 3.069390 0.326841 -1.116796 0.126485 -0.071522 -4.674439 -0.644201 -12.892067 2.980667 6.769700 -7.173097 9.973544 -7.697841 -4.193554 -6.986226 34.361274 -39.015320 -28.290884 39.838867 -43.311619 -11.365648 31.554095 -13.988623 -67.107445 37.833582 30.802450 10.737043 5.526886 35.592319 12.031237 6.842626 -17.611623 -38.418443 -10.518739 0.000002 0.000003 12.499998 0.000002 0.000003 12.499998 -0.000007 -0.000004 9.999988 0.000002 0.000001 5.000020 0.050647 0.000479 -21.662528 0.050647 0.000479 -21.662528 0.037936 -0.014229 -17.330047 0.016071 -0.012339 -8.665015 0.084615 0.001731 -18.180091 0.084615 0.001731 -18.180091 0.065063 -0.018734 -14.544069 0.029352 -0.016913 -7.272054 0.027396 0.000274 -12.405586 0.027396 0.000274 -12.405586 0.021471 -0.004384 -9.924479 0.010207 -0.003973 -4.962243 -168.592796 -0.013840 -179.861434 14.025500 -10.935299 -36.227590 53.654170 -30.456243 -43.320023 62.077536 -23.581102 -38.049322 -146.177385 13.111120 68.764450 4.729112 18.473080 -6.686028 5.274065 21.282019 -7.610000 29.140035 -43.010893 -23.683457 -0.047291 -0.019543 -5.301818 -0.047291 -0.019543 -5.301818 -0.038909 -0.012697 -4.241458 -0.019837 -0.005126 -2.120737 -0.034140 -0.013058 12.269783 -0.034140 -0.013058 12.269783 -0.024297 -0.016286 9.815821 -0.010519 -0.010191 4.907920 0.035843 0.013687 -3.440981 0.035843 0.013687 -3.440981 0.029415 0.008897 -2.752777 0.014956 0.003607 -1.376389 -0.007947 -0.003120 9.241549 -0.007947 -0.003120 9.241549 -0.005881 -0.003505 7.393230 -0.002673 -0.002125 3.696625 30.802450 10.737043 5.526886 15.763664 -10.430474 -9.590387 0.000000 78.674262 0.000000 -31.445516 0.966185 11.740144 0.000000 -25.307406 0.000000 -36.788940 -55.553133 43.972190 0.000000 81.209063 0.000000 -27.130431 -17.888775 -13.783551 0.000000 -12.591932 0.000000
52.047833 67.525348 -63.585181 119.156380 6.967221 -7.040863 0.524346 6.744713 6.603196 1.245077 3.210039 3.118648 0.287396 -1.192906 0.186995 -0.089320 -4.676247 -0.568307 -13.366931 3.575255 6.660455 -7.392550 9.734264 -7.689852 -4.048539 -6.975177 34.385461 -39.165808 -28.578376 40.193798 -44.756626 -12.482127 31.795825 -10.295621 -65.534795 35.542249 30.737836 11.080868 5.238622 35.521446 12.439498 6.532203 -18.386880 -34.041661 -9.182483 -0.000005 0.000011 12.499998 -0.000005 0.000011 12.499998 0.000000 0.000001 9.999993 -0.000001 -0.000003 5.000002 0.009716 0.000143 -21.153749 0.009716 0.000143 -21.153749 0.007280 -0.002687 -16.923009 0.003105 -0.002331 -8.461508 0.024519 0.000759 -19.262388 0.024519 0.000759 -19.262388 0.018870 -0.005380 -15.409917 0.008485 -0.004935 -7.704956 0.007938 0.000142 -12.757385 0.007938 0.000142 -12.757385 0.006234 -0.001242 -10.205919 0.002966 -0.001145 -5.102952 -168.592850 -0.013839 -179.861434 14.009853 -10.756322 -36.176704 54.055681 -30.304503 -44.069465 60.048237 -22.473999 -37.509026 -147.267761 14.352946 69.306736 6.145576 16.458687 -5.110455 6.982806 18.973840 -5.750240 29.194165 -42.903505 -23.939202 -0.004790 -0.001961 -2.776361 -0.004790 -0.001961 -2.776361 -0.003968 -0.001219 -2.221082 -0.002026 -0.000475 -1.110541 -0.002493 -0.000806 14.471588 -0.002493 -0.000806 14.471588 -0.001845 -0.001043 11.577267 -0.000824 -0.000661 5.788637 0.010396 0.004026 -2.651868 0.010396 0.004026 -2.651868 0.008525 0.002645 -2.121491 0.004329 0.001127 -1.060739 -0.002302 -0.000931 9.065808 -0.002302 -0.000931 9.065808 -0.001696 -0.001026 7.252661 -0.000772 -0.000638 3.626316 30.737836 11.080868 5.238622 14.983956 -9.490974 -8.878621 0.000000 76.938228 0.000000 -31.100015 1.653616 11.844298 0.000000 -25.930330 0.000000 -35.025535 -54.821461 42.188919 0.000000 79.772940 0.000000 -27.796500 -17.480898 -13.514615 0.000000 -12.792199 0.000000
52.380090 68.392432 -63.623401 120.456378 6.815415 -7.060287 0.560063 6.550387 6.668626 1.152952 3.044743 3.106162 0.238255 -1.332463 0.061997 -0.108960 -4.651285 -0.310251 -14.024760 3.941513 6.651806 -7.750632 9.796456 -7.902119 -3.984401 -6.979552 34.443158 -39.254594 -28.736637 40.474955 -45.932248 -13.515431 32.096467 -9.357125 -65.515715 34.970827 30.737836 11.080868 5.238622 35.521446 12.439498 6.532203 -18.386880 -34.041661 -9.182483 -0.000005 0.000011 12.499998 -0.000005 0.000011 12.499998 0.000000 0.000001 9.999993 -0.000001 -0.000003 5.000002 0.009716 0.000143 -21.153749 0.009716 0.000143 -21.153749 0.007280 -0.002687 -16.923009 0.003105 -0.002331 -8.461508 0.024519 0.000759 -19.262388 0.024519 0.000759 -19.262388 0.018870 -0.005380 -15.409917 0.008485 -0.004935 -7.704956 0.007938 0.000142 -12.757385 0.007938 0.000142 -12.757385 0.006234 -0.001242 -10.205919 0.002966 -0.001145 -5.102952 -168.592850 -0.013839 -179.861434 13.868182 -10.706801 -36.173493 54.259550 -29.967494 -44.432766 58.289407 -21.342322 -37.368354 -147.650323 16.232450 68.863967 6.145576 16.458687 -5.110455 6.982806 18.973840 -5.750240 29.194165 -42.903505 -23.939202 -0.004790 -0.001961 -2.776361 -0.004790 -0.001961 -2.776361 -0.003968 -0.001219 -2.221082 -0.002026 -0.000475 -1.110541 -0.002493 -0.000806 14.471588 -0.002493 -0.000806 14.471588 -0.001845 -0.001043 11.577267 -0.000824 -0.000661 5.788637 0.010396 0.004026 -2.651868 0.010396 0.004026 -2.651868 0.008525 0.002645 -2.121491 0.004329 0.001127 -1.060739 -0.002302 -0.000931 9.065808 -0.002302 -0.000931 9.065808 -0.001696 -0.001026 7.252661 -0.000772 -0.000638 3.626316 30.737836 11.080868 5.238622 14.120340 -8.557526 -8.241660 0.000000 75.111611 0.000000 -30.920638 2.520864 11.681204 0.000000 -26.578749 0.000000 -33.371358 -54.081228 40.393047 0.000000 78.343186 0.000000 -28.390757 -17.150639 -13.406220 0.000000 -12.921602 0.000000
52.712244 69.277429 -63.638226 121.738793 6.758166 -7.205315 0.522883 6.248951 6.723765 1.128194 2.891651 3.166501 0.300713 -1.375793 0.175498 -0.013721 -4.720781 -0.376920 -14.713157 4.414246 6.792159 -8.145497 9.786280 -8.143854 -4.056548 -7.017901 34.520042 -39.379250 -28.676039 40.791920 -46.919310 -14.575159 32.389863 -8.316313 -65.324070 34.477261 30.720408 11.161523 5.170824 35.502369 12.535367 6.459243 -18.555949 -33.012299 -8.885075 -0.000001 0.000007 12.499995 -0.000001 0.000007 12.499995 0.000010 -0.000003 10.000004 -0.000000 0.000003 4.999998 0.002172 0.000038 -21.034082 0.002172 0.000038 -21.034082 0.001613 -0.000590 -16.827279 0.000696 -0.000517 -8.413647 0.004095 0.000112 -17.606059 0.004095 0.000112 -17.606059 0.003150 -0.000890 -14.084848 0.001417 -0.000822 -7.042427 0.001118 0.000028 -12.016643 0.001118 0.000028 -12.016643 0.000882 -0.000171 -9.613314 0.000418 -0.000161 -4.806654 -168.592904 -0.013839 -179.861435 13.765777 -10.675916 -36.082329 54.524013 -29.942027 -44.922241 56.852597 -20.238672 -36.879624 -148.407967 17.602735 68.380983 6.469017 15.981151 -4.749642 7.363308 18.421279 -5.328352 29.211093 -42.876505 -24.000593 -0.000776 -0.000326 -2.183031 -0.000776 -0.000326 -2.183031 -0.000641 -0.000180 -1.746428 -0.000336 -0.000063 -0.873206 -0.000275 -0.000064 14.988865 -0.000275 -0.000064 14.988865 -0.000223 -0.000091 11.991082 -0.000113 -0.000062 5.995541 0.000948 0.000422 -5.144196 0.000948 0.000422 -5.144196 0.000772 0.000277 -4.115350 0.000409 0.000143 -2.057684 -0.002097 -0.000854 6.423596 -0.002097 -0.000854 6.423596 -0.001576 -0.000904 5.138875 -0.000731 -0.000525 2.569415 30.720408 11.161523 5.170824 13.385849 -7.732254 -7.465152 0.000000 73.293992 0.000000 -30.684680 3.419135 11.506985 0.000000 -27.392760 0.000000 -32.071770 -53.358365 39.000071 0.000000 76.991583 0.000000 -28.728567 -16.671350 -12.613559 0.000000 -13.017753 0.000000
53.052185 70.173035 -63.665924 123.081529 6.652519 -7.346387 0.580918 6.060492 6.753282 1.073114 2.697622 3.276822 0.236143 -1.492567 0.234389 -0.124726 -4.851456 -0.179881 -15.291276 4.990310 6.443860 -8.388119 9.651699 -8.061425 -3.903811 -6.956113 34.408584 -39.530024 -28.765019 41.106812 -47.756416 -15.292216 32.544903 -7.966414 -65.724883 34.448873 30.720408 11.161523 5.170824 35.502369 12.535367 6.459243 -18.555949 -33.012299 -8.885075 -0.000001 0.000007 12.499995 -0.000001 0.000007 12.499995 0.000010 -0.000003 10.000004 -0.000000 0.000003 4.999998 0.002172 0.000038 -21.034082 0.002172 0.000038 -21.034082 0.001613 -0.000590 -16.827279 0.000696 -0.000517 -8.413647 0.004095 0.000112 -17.606059 0.004095 0.000112 -17.606059 0.003150 -0.000890 -14.084848 0.001417 -0.000822 -7.042427 0.001118 0.000028 -12.016643 0.001118 0.000028 -12.016643 0.000882 -0.000171 -9.613314 0.000418 -0.000161 -4.806654 -168.592904 -0.013839 -179.861435 13.853705 -10.468071 -36.084569 54.687648 -29.621521 -45.406550 55.407550 -19.403817 -36.788433 -148.907488 19.112728 67.518204 6.469017 15.981151 -4.749642 7.363308 18.421279 -5.328352 29.211093 -42.876505 -24.000593 -0.000776 -0.000326 -2.183031 -0.000776 -0.000326 -2.183031 -0.000641 -0.000180 -1.746428 -0.000336 -0.000063 -0.873206 -0.000275 -0.000064 14.988865 -0.000275 -0.000064 14.988865 -0.000223 -0.000091 11.991082 -0.000113 -0.000062 5.995541 0.000948 0.000422 -5.144196 0.000948 0.000422 -5.144196 0.000772 0.000277 -4.115350 0.000409 0.000143 -2.057684 -0.002097 -0.000854 6.423596 -0.002097 -0.000854 6.423596 -0.001576 -0.000904 5.138875 -0.000731 -0.000525 2.569415 30.720408 11.161523 5.170824 12.634796 -6.833306 -6.681114 0.000000 71.422878 0.000000 -30.393315 4.300150 11.364800 0.000000 -28.048614 0.000000 -30.663284 -52.449042 37.516973 0.000000 75.415016 0.000000 -28.506679 -16.295629 -12.598820 0.000000 -13.072683 0.000000
